<?xml version="1.0" encoding="UTF-8" standalone="no"?>
<!DOCTYPE svg PUBLIC "-//W3C//DTD SVG 1.1//EN"
 "http://www.w3.org/Graphics/SVG/1.1/DTD/svg11.dtd">
<!-- Generated by graphviz version 2.43.0 (0)
 -->
<!-- Title: Tree Pages: 1 -->
<svg width="369pt" height="230pt"
 viewBox="0.00 0.00 369.00 230.00" xmlns="http://www.w3.org/2000/svg" xmlns:xlink="http://www.w3.org/1999/xlink">
<g id="graph0" class="graph" transform="scale(1 1) rotate(0) translate(4 226)">
<title>Tree</title>
<polygon fill="white" stroke="transparent" points="-4,4 -4,-226 365,-226 365,4 -4,4"/>
<!-- node1 -->
<g id="node1" class="node">
<title>node1</title>
<polygon fill="lightblue" stroke="black" points="2,-0.5 2,-92.5 169,-92.5 169,-0.5 2,-0.5"/>
<text text-anchor="middle" x="85.5" y="-77.3" font-family="Times,serif" font-size="14.00">0x504000000190</text>
<polyline fill="none" stroke="black" points="2,-69.5 169,-69.5 "/>
<text text-anchor="middle" x="85.5" y="-54.3" font-family="Times,serif" font-size="14.00">type = NUMBER</text>
<polyline fill="none" stroke="black" points="2,-46.5 169,-46.5 "/>
<text text-anchor="middle" x="85.5" y="-31.3" font-family="Times,serif" font-size="14.00">data = 1</text>
<polyline fill="none" stroke="black" points="2,-23.5 169,-23.5 "/>
<text text-anchor="middle" x="41" y="-8.3" font-family="Times,serif" font-size="14.00">left: (nil)</text>
<polyline fill="none" stroke="black" points="80,-0.5 80,-23.5 "/>
<text text-anchor="middle" x="124.5" y="-8.3" font-family="Times,serif" font-size="14.00">right: (nil)</text>
</g>
<!-- node2 -->
<g id="node2" class="node">
<title>node2</title>
<polygon fill="lightblue" stroke="black" points="187,-0.5 187,-92.5 354,-92.5 354,-0.5 187,-0.5"/>
<text text-anchor="middle" x="270.5" y="-77.3" font-family="Times,serif" font-size="14.00">0x5040000001d0</text>
<polyline fill="none" stroke="black" points="187,-69.5 354,-69.5 "/>
<text text-anchor="middle" x="270.5" y="-54.3" font-family="Times,serif" font-size="14.00">type = NUMBER</text>
<polyline fill="none" stroke="black" points="187,-46.5 354,-46.5 "/>
<text text-anchor="middle" x="270.5" y="-31.3" font-family="Times,serif" font-size="14.00">data = 1</text>
<polyline fill="none" stroke="black" points="187,-23.5 354,-23.5 "/>
<text text-anchor="middle" x="226" y="-8.3" font-family="Times,serif" font-size="14.00">left: (nil)</text>
<polyline fill="none" stroke="black" points="265,-0.5 265,-23.5 "/>
<text text-anchor="middle" x="309.5" y="-8.3" font-family="Times,serif" font-size="14.00">right: (nil)</text>
</g>
<!-- node3 -->
<g id="node3" class="node">
<title>node3</title>
<polygon fill="lightblue" stroke="black" points="0,-129.5 0,-221.5 361,-221.5 361,-129.5 0,-129.5"/>
<text text-anchor="middle" x="180.5" y="-206.3" font-family="Times,serif" font-size="14.00">0x504000000150</text>
<polyline fill="none" stroke="black" points="0,-198.5 361,-198.5 "/>
<text text-anchor="middle" x="180.5" y="-183.3" font-family="Times,serif" font-size="14.00">type = OPERATION</text>
<polyline fill="none" stroke="black" points="0,-175.5 361,-175.5 "/>
<text text-anchor="middle" x="180.5" y="-160.3" font-family="Times,serif" font-size="14.00">data = +</text>
<polyline fill="none" stroke="black" points="0,-152.5 361,-152.5 "/>
<text text-anchor="middle" x="87.5" y="-137.3" font-family="Times,serif" font-size="14.00">left: 0x504000000190</text>
<polyline fill="none" stroke="black" points="175,-129.5 175,-152.5 "/>
<text text-anchor="middle" x="268" y="-137.3" font-family="Times,serif" font-size="14.00">right: 0x5040000001d0</text>
</g>
<!-- node3&#45;&gt;node1 -->
<g id="edge1" class="edge">
<title>node3:f3&#45;&gt;node1</title>
<path fill="none" stroke="red" d="M87.45,-118.9C87.41,-113.59 87.33,-108.19 87.22,-102.87"/>
<polygon fill="red" stroke="red" points="83.95,-119.02 87.5,-129 90.95,-118.98 83.95,-119.02"/>
<polygon fill="red" stroke="red" points="90.72,-102.68 87.01,-92.76 83.72,-102.83 90.72,-102.68"/>
</g>
<!-- node3&#45;&gt;node2 -->
<g id="edge2" class="edge">
<title>node3:f4&#45;&gt;node2</title>
<path fill="none" stroke="green" d="M268.55,-118.9C268.59,-113.59 268.67,-108.19 268.78,-102.87"/>
<polygon fill="green" stroke="green" points="265.05,-118.98 268.5,-129 272.05,-119.02 265.05,-118.98"/>
<polygon fill="green" stroke="green" points="272.28,-102.83 268.99,-92.76 265.28,-102.68 272.28,-102.83"/>
</g>
</g>
</svg>
