<?xml version="1.0" encoding="UTF-8" standalone="no"?>
<!DOCTYPE svg PUBLIC "-//W3C//DTD SVG 1.1//EN"
 "http://www.w3.org/Graphics/SVG/1.1/DTD/svg11.dtd">
<!-- Generated by graphviz version 2.43.0 (0)
 -->
<!-- Title: Tree Pages: 1 -->
<svg width="2428pt" height="746pt"
 viewBox="0.00 0.00 2428.00 746.00" xmlns="http://www.w3.org/2000/svg" xmlns:xlink="http://www.w3.org/1999/xlink">
<g id="graph0" class="graph" transform="scale(1 1) rotate(0) translate(4 742)">
<title>Tree</title>
<polygon fill="white" stroke="transparent" points="-4,4 -4,-742 2424,-742 2424,4 -4,4"/>
<!-- node1 -->
<g id="node1" class="node">
<title>node1</title>
<polygon fill="lightblue" stroke="black" points="0,-129.5 0,-221.5 167,-221.5 167,-129.5 0,-129.5"/>
<text text-anchor="middle" x="83.5" y="-206.3" font-family="Times,serif" font-size="14.00">0x504000000c90</text>
<polyline fill="none" stroke="black" points="0,-198.5 167,-198.5 "/>
<text text-anchor="middle" x="83.5" y="-183.3" font-family="Times,serif" font-size="14.00">type = NUMBER</text>
<polyline fill="none" stroke="black" points="0,-175.5 167,-175.5 "/>
<text text-anchor="middle" x="83.5" y="-160.3" font-family="Times,serif" font-size="14.00">data = 3</text>
<polyline fill="none" stroke="black" points="0,-152.5 167,-152.5 "/>
<text text-anchor="middle" x="39" y="-137.3" font-family="Times,serif" font-size="14.00">left: (nil)</text>
<polyline fill="none" stroke="black" points="78,-129.5 78,-152.5 "/>
<text text-anchor="middle" x="122.5" y="-137.3" font-family="Times,serif" font-size="14.00">right: (nil)</text>
</g>
<!-- node2 -->
<g id="node2" class="node">
<title>node2</title>
<polygon fill="lightblue" stroke="black" points="187,-0.5 187,-92.5 354,-92.5 354,-0.5 187,-0.5"/>
<text text-anchor="middle" x="270.5" y="-77.3" font-family="Times,serif" font-size="14.00">0x504000000d10</text>
<polyline fill="none" stroke="black" points="187,-69.5 354,-69.5 "/>
<text text-anchor="middle" x="270.5" y="-54.3" font-family="Times,serif" font-size="14.00">type = VARIABLE</text>
<polyline fill="none" stroke="black" points="187,-46.5 354,-46.5 "/>
<text text-anchor="middle" x="270.5" y="-31.3" font-family="Times,serif" font-size="14.00">data = x</text>
<polyline fill="none" stroke="black" points="187,-23.5 354,-23.5 "/>
<text text-anchor="middle" x="226" y="-8.3" font-family="Times,serif" font-size="14.00">left: (nil)</text>
<polyline fill="none" stroke="black" points="265,-0.5 265,-23.5 "/>
<text text-anchor="middle" x="309.5" y="-8.3" font-family="Times,serif" font-size="14.00">right: (nil)</text>
</g>
<!-- node3 -->
<g id="node3" class="node">
<title>node3</title>
<polygon fill="lightblue" stroke="black" points="372,-0.5 372,-92.5 539,-92.5 539,-0.5 372,-0.5"/>
<text text-anchor="middle" x="455.5" y="-77.3" font-family="Times,serif" font-size="14.00">0x504000000d50</text>
<polyline fill="none" stroke="black" points="372,-69.5 539,-69.5 "/>
<text text-anchor="middle" x="455.5" y="-54.3" font-family="Times,serif" font-size="14.00">type = NUMBER</text>
<polyline fill="none" stroke="black" points="372,-46.5 539,-46.5 "/>
<text text-anchor="middle" x="455.5" y="-31.3" font-family="Times,serif" font-size="14.00">data = 2</text>
<polyline fill="none" stroke="black" points="372,-23.5 539,-23.5 "/>
<text text-anchor="middle" x="411" y="-8.3" font-family="Times,serif" font-size="14.00">left: (nil)</text>
<polyline fill="none" stroke="black" points="450,-0.5 450,-23.5 "/>
<text text-anchor="middle" x="494.5" y="-8.3" font-family="Times,serif" font-size="14.00">right: (nil)</text>
</g>
<!-- node4 -->
<g id="node4" class="node">
<title>node4</title>
<polygon fill="lightblue" stroke="black" points="185,-129.5 185,-221.5 546,-221.5 546,-129.5 185,-129.5"/>
<text text-anchor="middle" x="365.5" y="-206.3" font-family="Times,serif" font-size="14.00">0x504000000cd0</text>
<polyline fill="none" stroke="black" points="185,-198.5 546,-198.5 "/>
<text text-anchor="middle" x="365.5" y="-183.3" font-family="Times,serif" font-size="14.00">type = OPERATION</text>
<polyline fill="none" stroke="black" points="185,-175.5 546,-175.5 "/>
<text text-anchor="middle" x="365.5" y="-160.3" font-family="Times,serif" font-size="14.00">data = ^</text>
<polyline fill="none" stroke="black" points="185,-152.5 546,-152.5 "/>
<text text-anchor="middle" x="272.5" y="-137.3" font-family="Times,serif" font-size="14.00">left: 0x504000000d10</text>
<polyline fill="none" stroke="black" points="360,-129.5 360,-152.5 "/>
<text text-anchor="middle" x="453" y="-137.3" font-family="Times,serif" font-size="14.00">right: 0x504000000d50</text>
</g>
<!-- node4&#45;&gt;node2 -->
<g id="edge1" class="edge">
<title>node4:f3&#45;&gt;node2</title>
<path fill="none" stroke="red" d="M272.45,-118.9C272.41,-113.59 272.33,-108.19 272.22,-102.87"/>
<polygon fill="red" stroke="red" points="268.95,-119.02 272.5,-129 275.95,-118.98 268.95,-119.02"/>
<polygon fill="red" stroke="red" points="275.72,-102.68 272.01,-92.76 268.72,-102.83 275.72,-102.68"/>
</g>
<!-- node4&#45;&gt;node3 -->
<g id="edge2" class="edge">
<title>node4:f4&#45;&gt;node3</title>
<path fill="none" stroke="green" d="M453.55,-118.9C453.59,-113.59 453.67,-108.19 453.78,-102.87"/>
<polygon fill="green" stroke="green" points="450.05,-118.98 453.5,-129 457.05,-119.02 450.05,-118.98"/>
<polygon fill="green" stroke="green" points="457.28,-102.83 453.99,-92.76 450.28,-102.68 457.28,-102.83"/>
</g>
<!-- node5 -->
<g id="node5" class="node">
<title>node5</title>
<polygon fill="lightblue" stroke="black" points="99.5,-258.5 99.5,-350.5 457.5,-350.5 457.5,-258.5 99.5,-258.5"/>
<text text-anchor="middle" x="278.5" y="-335.3" font-family="Times,serif" font-size="14.00">0x504000000c50</text>
<polyline fill="none" stroke="black" points="99.5,-327.5 457.5,-327.5 "/>
<text text-anchor="middle" x="278.5" y="-312.3" font-family="Times,serif" font-size="14.00">type = OPERATION</text>
<polyline fill="none" stroke="black" points="99.5,-304.5 457.5,-304.5 "/>
<text text-anchor="middle" x="278.5" y="-289.3" font-family="Times,serif" font-size="14.00">data = *</text>
<polyline fill="none" stroke="black" points="99.5,-281.5 457.5,-281.5 "/>
<text text-anchor="middle" x="186" y="-266.3" font-family="Times,serif" font-size="14.00">left: 0x504000000c90</text>
<polyline fill="none" stroke="black" points="272.5,-258.5 272.5,-281.5 "/>
<text text-anchor="middle" x="365" y="-266.3" font-family="Times,serif" font-size="14.00">right: 0x504000000cd0</text>
</g>
<!-- node5&#45;&gt;node1 -->
<g id="edge3" class="edge">
<title>node5:f3&#45;&gt;node1</title>
<path fill="none" stroke="red" d="M88.65,-267.3C78.33,-261.99 75.07,-247.75 75.01,-232.07"/>
<polygon fill="red" stroke="red" points="87.98,-270.74 98.5,-269.5 89.5,-263.91 87.98,-270.74"/>
<polygon fill="red" stroke="red" points="78.53,-231.76 75.39,-221.64 71.53,-231.5 78.53,-231.76"/>
</g>
<!-- node5&#45;&gt;node4 -->
<g id="edge4" class="edge">
<title>node5:f4&#45;&gt;node4</title>
<path fill="none" stroke="green" d="M365.5,-247.91C365.5,-242.59 365.5,-237.2 365.5,-231.87"/>
<polygon fill="green" stroke="green" points="362,-248 365.5,-258 369,-248 362,-248"/>
<polygon fill="green" stroke="green" points="369,-231.76 365.5,-221.76 362,-231.76 369,-231.76"/>
</g>
<!-- node6 -->
<g id="node6" class="node">
<title>node6</title>
<polygon fill="lightblue" stroke="black" points="564,-129.5 564,-221.5 731,-221.5 731,-129.5 564,-129.5"/>
<text text-anchor="middle" x="647.5" y="-206.3" font-family="Times,serif" font-size="14.00">0x504000000810</text>
<polyline fill="none" stroke="black" points="564,-198.5 731,-198.5 "/>
<text text-anchor="middle" x="647.5" y="-183.3" font-family="Times,serif" font-size="14.00">type = NUMBER</text>
<polyline fill="none" stroke="black" points="564,-175.5 731,-175.5 "/>
<text text-anchor="middle" x="647.5" y="-160.3" font-family="Times,serif" font-size="14.00">data = 12</text>
<polyline fill="none" stroke="black" points="564,-152.5 731,-152.5 "/>
<text text-anchor="middle" x="603" y="-137.3" font-family="Times,serif" font-size="14.00">left: (nil)</text>
<polyline fill="none" stroke="black" points="642,-129.5 642,-152.5 "/>
<text text-anchor="middle" x="686.5" y="-137.3" font-family="Times,serif" font-size="14.00">right: (nil)</text>
</g>
<!-- node7 -->
<g id="node7" class="node">
<title>node7</title>
<polygon fill="lightblue" stroke="black" points="751,-0.5 751,-92.5 918,-92.5 918,-0.5 751,-0.5"/>
<text text-anchor="middle" x="834.5" y="-77.3" font-family="Times,serif" font-size="14.00">0x504000000890</text>
<polyline fill="none" stroke="black" points="751,-69.5 918,-69.5 "/>
<text text-anchor="middle" x="834.5" y="-54.3" font-family="Times,serif" font-size="14.00">type = VARIABLE</text>
<polyline fill="none" stroke="black" points="751,-46.5 918,-46.5 "/>
<text text-anchor="middle" x="834.5" y="-31.3" font-family="Times,serif" font-size="14.00">data = x</text>
<polyline fill="none" stroke="black" points="751,-23.5 918,-23.5 "/>
<text text-anchor="middle" x="790" y="-8.3" font-family="Times,serif" font-size="14.00">left: (nil)</text>
<polyline fill="none" stroke="black" points="829,-0.5 829,-23.5 "/>
<text text-anchor="middle" x="873.5" y="-8.3" font-family="Times,serif" font-size="14.00">right: (nil)</text>
</g>
<!-- node8 -->
<g id="node8" class="node">
<title>node8</title>
<polygon fill="lightblue" stroke="black" points="936,-0.5 936,-92.5 1103,-92.5 1103,-0.5 936,-0.5"/>
<text text-anchor="middle" x="1019.5" y="-77.3" font-family="Times,serif" font-size="14.00">0x5040000008d0</text>
<polyline fill="none" stroke="black" points="936,-69.5 1103,-69.5 "/>
<text text-anchor="middle" x="1019.5" y="-54.3" font-family="Times,serif" font-size="14.00">type = NUMBER</text>
<polyline fill="none" stroke="black" points="936,-46.5 1103,-46.5 "/>
<text text-anchor="middle" x="1019.5" y="-31.3" font-family="Times,serif" font-size="14.00">data = 2</text>
<polyline fill="none" stroke="black" points="936,-23.5 1103,-23.5 "/>
<text text-anchor="middle" x="975" y="-8.3" font-family="Times,serif" font-size="14.00">left: (nil)</text>
<polyline fill="none" stroke="black" points="1014,-0.5 1014,-23.5 "/>
<text text-anchor="middle" x="1058.5" y="-8.3" font-family="Times,serif" font-size="14.00">right: (nil)</text>
</g>
<!-- node9 -->
<g id="node9" class="node">
<title>node9</title>
<polygon fill="lightblue" stroke="black" points="749,-129.5 749,-221.5 1110,-221.5 1110,-129.5 749,-129.5"/>
<text text-anchor="middle" x="929.5" y="-206.3" font-family="Times,serif" font-size="14.00">0x504000000850</text>
<polyline fill="none" stroke="black" points="749,-198.5 1110,-198.5 "/>
<text text-anchor="middle" x="929.5" y="-183.3" font-family="Times,serif" font-size="14.00">type = OPERATION</text>
<polyline fill="none" stroke="black" points="749,-175.5 1110,-175.5 "/>
<text text-anchor="middle" x="929.5" y="-160.3" font-family="Times,serif" font-size="14.00">data = ^</text>
<polyline fill="none" stroke="black" points="749,-152.5 1110,-152.5 "/>
<text text-anchor="middle" x="836.5" y="-137.3" font-family="Times,serif" font-size="14.00">left: 0x504000000890</text>
<polyline fill="none" stroke="black" points="924,-129.5 924,-152.5 "/>
<text text-anchor="middle" x="1017" y="-137.3" font-family="Times,serif" font-size="14.00">right: 0x5040000008d0</text>
</g>
<!-- node9&#45;&gt;node7 -->
<g id="edge5" class="edge">
<title>node9:f3&#45;&gt;node7</title>
<path fill="none" stroke="red" d="M836.45,-118.9C836.41,-113.59 836.33,-108.19 836.22,-102.87"/>
<polygon fill="red" stroke="red" points="832.95,-119.02 836.5,-129 839.95,-118.98 832.95,-119.02"/>
<polygon fill="red" stroke="red" points="839.72,-102.68 836.01,-92.76 832.72,-102.83 839.72,-102.68"/>
</g>
<!-- node9&#45;&gt;node8 -->
<g id="edge6" class="edge">
<title>node9:f4&#45;&gt;node8</title>
<path fill="none" stroke="green" d="M1017.55,-118.9C1017.59,-113.59 1017.67,-108.19 1017.78,-102.87"/>
<polygon fill="green" stroke="green" points="1014.05,-118.98 1017.5,-129 1021.05,-119.02 1014.05,-118.98"/>
<polygon fill="green" stroke="green" points="1021.28,-102.83 1017.99,-92.76 1014.28,-102.68 1021.28,-102.83"/>
</g>
<!-- node10 -->
<g id="node10" class="node">
<title>node10</title>
<polygon fill="lightblue" stroke="black" points="610,-258.5 610,-350.5 971,-350.5 971,-258.5 610,-258.5"/>
<text text-anchor="middle" x="790.5" y="-335.3" font-family="Times,serif" font-size="14.00">0x5040000007d0</text>
<polyline fill="none" stroke="black" points="610,-327.5 971,-327.5 "/>
<text text-anchor="middle" x="790.5" y="-312.3" font-family="Times,serif" font-size="14.00">type = OPERATION</text>
<polyline fill="none" stroke="black" points="610,-304.5 971,-304.5 "/>
<text text-anchor="middle" x="790.5" y="-289.3" font-family="Times,serif" font-size="14.00">data = +</text>
<polyline fill="none" stroke="black" points="610,-281.5 971,-281.5 "/>
<text text-anchor="middle" x="697.5" y="-266.3" font-family="Times,serif" font-size="14.00">left: 0x504000000810</text>
<polyline fill="none" stroke="black" points="785,-258.5 785,-281.5 "/>
<text text-anchor="middle" x="878" y="-266.3" font-family="Times,serif" font-size="14.00">right: 0x504000000850</text>
</g>
<!-- node10&#45;&gt;node6 -->
<g id="edge7" class="edge">
<title>node10:f3&#45;&gt;node6</title>
<path fill="none" stroke="red" d="M696.59,-247.9C695.55,-242 693.67,-236.22 691.23,-230.67"/>
<polygon fill="red" stroke="red" points="693.12,-248.35 697.5,-258 700.09,-247.73 693.12,-248.35"/>
<polygon fill="red" stroke="red" points="694.27,-228.93 686.65,-221.57 688.02,-232.07 694.27,-228.93"/>
</g>
<!-- node10&#45;&gt;node9 -->
<g id="edge8" class="edge">
<title>node10:f4&#45;&gt;node9</title>
<path fill="none" stroke="green" d="M879.4,-247.98C880.44,-242.13 882.31,-236.41 884.74,-230.92"/>
<polygon fill="green" stroke="green" points="875.91,-247.73 878.5,-258 882.88,-248.35 875.91,-247.73"/>
<polygon fill="green" stroke="green" points="887.91,-232.4 889.32,-221.9 881.67,-229.24 887.91,-232.4"/>
</g>
<!-- node11 -->
<g id="node11" class="node">
<title>node11</title>
<polygon fill="lightblue" stroke="black" points="524,-387.5 524,-479.5 883,-479.5 883,-387.5 524,-387.5"/>
<text text-anchor="middle" x="703.5" y="-464.3" font-family="Times,serif" font-size="14.00">0x504000000b50</text>
<polyline fill="none" stroke="black" points="524,-456.5 883,-456.5 "/>
<text text-anchor="middle" x="703.5" y="-441.3" font-family="Times,serif" font-size="14.00">type = OPERATION</text>
<polyline fill="none" stroke="black" points="524,-433.5 883,-433.5 "/>
<text text-anchor="middle" x="703.5" y="-418.3" font-family="Times,serif" font-size="14.00">data = *</text>
<polyline fill="none" stroke="black" points="524,-410.5 883,-410.5 "/>
<text text-anchor="middle" x="610.5" y="-395.3" font-family="Times,serif" font-size="14.00">left: 0x504000000c50</text>
<polyline fill="none" stroke="black" points="697,-387.5 697,-410.5 "/>
<text text-anchor="middle" x="790" y="-395.3" font-family="Times,serif" font-size="14.00">right: 0x5040000007d0</text>
</g>
<!-- node11&#45;&gt;node5 -->
<g id="edge9" class="edge">
<title>node11:f3&#45;&gt;node5</title>
<path fill="none" stroke="red" d="M512.4,-398.27C459.94,-395.92 405.89,-375.84 362.99,-354.96"/>
<polygon fill="red" stroke="red" points="512.42,-401.77 522.5,-398.5 512.58,-394.77 512.42,-401.77"/>
<polygon fill="red" stroke="red" points="364.52,-351.82 354,-350.5 361.4,-358.08 364.52,-351.82"/>
</g>
<!-- node11&#45;&gt;node10 -->
<g id="edge10" class="edge">
<title>node11:f4&#45;&gt;node10</title>
<path fill="none" stroke="green" d="M790.5,-376.91C790.5,-371.59 790.5,-366.2 790.5,-360.87"/>
<polygon fill="green" stroke="green" points="787,-377 790.5,-387 794,-377 787,-377"/>
<polygon fill="green" stroke="green" points="794,-360.76 790.5,-350.76 787,-360.76 794,-360.76"/>
</g>
<!-- node12 -->
<g id="node12" class="node">
<title>node12</title>
<polygon fill="lightblue" stroke="black" points="1128,-129.5 1128,-221.5 1295,-221.5 1295,-129.5 1128,-129.5"/>
<text text-anchor="middle" x="1211.5" y="-206.3" font-family="Times,serif" font-size="14.00">0x504000000710</text>
<polyline fill="none" stroke="black" points="1128,-198.5 1295,-198.5 "/>
<text text-anchor="middle" x="1211.5" y="-183.3" font-family="Times,serif" font-size="14.00">type = VARIABLE</text>
<polyline fill="none" stroke="black" points="1128,-175.5 1295,-175.5 "/>
<text text-anchor="middle" x="1211.5" y="-160.3" font-family="Times,serif" font-size="14.00">data = x</text>
<polyline fill="none" stroke="black" points="1128,-152.5 1295,-152.5 "/>
<text text-anchor="middle" x="1167" y="-137.3" font-family="Times,serif" font-size="14.00">left: (nil)</text>
<polyline fill="none" stroke="black" points="1206,-129.5 1206,-152.5 "/>
<text text-anchor="middle" x="1250.5" y="-137.3" font-family="Times,serif" font-size="14.00">right: (nil)</text>
</g>
<!-- node13 -->
<g id="node13" class="node">
<title>node13</title>
<polygon fill="lightblue" stroke="black" points="1313,-129.5 1313,-221.5 1480,-221.5 1480,-129.5 1313,-129.5"/>
<text text-anchor="middle" x="1396.5" y="-206.3" font-family="Times,serif" font-size="14.00">0x504000000750</text>
<polyline fill="none" stroke="black" points="1313,-198.5 1480,-198.5 "/>
<text text-anchor="middle" x="1396.5" y="-183.3" font-family="Times,serif" font-size="14.00">type = NUMBER</text>
<polyline fill="none" stroke="black" points="1313,-175.5 1480,-175.5 "/>
<text text-anchor="middle" x="1396.5" y="-160.3" font-family="Times,serif" font-size="14.00">data = 3</text>
<polyline fill="none" stroke="black" points="1313,-152.5 1480,-152.5 "/>
<text text-anchor="middle" x="1352" y="-137.3" font-family="Times,serif" font-size="14.00">left: (nil)</text>
<polyline fill="none" stroke="black" points="1391,-129.5 1391,-152.5 "/>
<text text-anchor="middle" x="1435.5" y="-137.3" font-family="Times,serif" font-size="14.00">right: (nil)</text>
</g>
<!-- node14 -->
<g id="node14" class="node">
<title>node14</title>
<polygon fill="lightblue" stroke="black" points="1124,-258.5 1124,-350.5 1485,-350.5 1485,-258.5 1124,-258.5"/>
<text text-anchor="middle" x="1304.5" y="-335.3" font-family="Times,serif" font-size="14.00">0x5040000006d0</text>
<polyline fill="none" stroke="black" points="1124,-327.5 1485,-327.5 "/>
<text text-anchor="middle" x="1304.5" y="-312.3" font-family="Times,serif" font-size="14.00">type = OPERATION</text>
<polyline fill="none" stroke="black" points="1124,-304.5 1485,-304.5 "/>
<text text-anchor="middle" x="1304.5" y="-289.3" font-family="Times,serif" font-size="14.00">data = ^</text>
<polyline fill="none" stroke="black" points="1124,-281.5 1485,-281.5 "/>
<text text-anchor="middle" x="1211.5" y="-266.3" font-family="Times,serif" font-size="14.00">left: 0x504000000710</text>
<polyline fill="none" stroke="black" points="1299,-258.5 1299,-281.5 "/>
<text text-anchor="middle" x="1392" y="-266.3" font-family="Times,serif" font-size="14.00">right: 0x504000000750</text>
</g>
<!-- node14&#45;&gt;node12 -->
<g id="edge11" class="edge">
<title>node14:f3&#45;&gt;node12</title>
<path fill="none" stroke="red" d="M1211.5,-247.91C1211.5,-242.59 1211.5,-237.2 1211.5,-231.87"/>
<polygon fill="red" stroke="red" points="1208,-248 1211.5,-258 1215,-248 1208,-248"/>
<polygon fill="red" stroke="red" points="1215,-231.76 1211.5,-221.76 1208,-231.76 1215,-231.76"/>
</g>
<!-- node14&#45;&gt;node13 -->
<g id="edge12" class="edge">
<title>node14:f4&#45;&gt;node13</title>
<path fill="none" stroke="green" d="M1392.59,-247.9C1392.69,-242.58 1392.85,-237.18 1393.05,-231.85"/>
<polygon fill="green" stroke="green" points="1389.09,-247.97 1392.5,-258 1396.09,-248.03 1389.09,-247.97"/>
<polygon fill="green" stroke="green" points="1396.55,-231.89 1393.49,-221.74 1389.56,-231.58 1396.55,-231.89"/>
</g>
<!-- node15 -->
<g id="node15" class="node">
<title>node15</title>
<polygon fill="lightblue" stroke="black" points="1502,-129.5 1502,-221.5 1669,-221.5 1669,-129.5 1502,-129.5"/>
<text text-anchor="middle" x="1585.5" y="-206.3" font-family="Times,serif" font-size="14.00">0x504000000f10</text>
<polyline fill="none" stroke="black" points="1502,-198.5 1669,-198.5 "/>
<text text-anchor="middle" x="1585.5" y="-183.3" font-family="Times,serif" font-size="14.00">type = NUMBER</text>
<polyline fill="none" stroke="black" points="1502,-175.5 1669,-175.5 "/>
<text text-anchor="middle" x="1585.5" y="-160.3" font-family="Times,serif" font-size="14.00">data = 2</text>
<polyline fill="none" stroke="black" points="1502,-152.5 1669,-152.5 "/>
<text text-anchor="middle" x="1541" y="-137.3" font-family="Times,serif" font-size="14.00">left: (nil)</text>
<polyline fill="none" stroke="black" points="1580,-129.5 1580,-152.5 "/>
<text text-anchor="middle" x="1624.5" y="-137.3" font-family="Times,serif" font-size="14.00">right: (nil)</text>
</g>
<!-- node16 -->
<g id="node16" class="node">
<title>node16</title>
<polygon fill="lightblue" stroke="black" points="1687,-129.5 1687,-221.5 1854,-221.5 1854,-129.5 1687,-129.5"/>
<text text-anchor="middle" x="1770.5" y="-206.3" font-family="Times,serif" font-size="14.00">0x504000000f50</text>
<polyline fill="none" stroke="black" points="1687,-198.5 1854,-198.5 "/>
<text text-anchor="middle" x="1770.5" y="-183.3" font-family="Times,serif" font-size="14.00">type = VARIABLE</text>
<polyline fill="none" stroke="black" points="1687,-175.5 1854,-175.5 "/>
<text text-anchor="middle" x="1770.5" y="-160.3" font-family="Times,serif" font-size="14.00">data = x</text>
<polyline fill="none" stroke="black" points="1687,-152.5 1854,-152.5 "/>
<text text-anchor="middle" x="1726" y="-137.3" font-family="Times,serif" font-size="14.00">left: (nil)</text>
<polyline fill="none" stroke="black" points="1765,-129.5 1765,-152.5 "/>
<text text-anchor="middle" x="1809.5" y="-137.3" font-family="Times,serif" font-size="14.00">right: (nil)</text>
</g>
<!-- node17 -->
<g id="node17" class="node">
<title>node17</title>
<polygon fill="lightblue" stroke="black" points="1503,-258.5 1503,-350.5 1856,-350.5 1856,-258.5 1503,-258.5"/>
<text text-anchor="middle" x="1679.5" y="-335.3" font-family="Times,serif" font-size="14.00">0x504000000ed0</text>
<polyline fill="none" stroke="black" points="1503,-327.5 1856,-327.5 "/>
<text text-anchor="middle" x="1679.5" y="-312.3" font-family="Times,serif" font-size="14.00">type = OPERATION</text>
<polyline fill="none" stroke="black" points="1503,-304.5 1856,-304.5 "/>
<text text-anchor="middle" x="1679.5" y="-289.3" font-family="Times,serif" font-size="14.00">data = *</text>
<polyline fill="none" stroke="black" points="1503,-281.5 1856,-281.5 "/>
<text text-anchor="middle" x="1588.5" y="-266.3" font-family="Times,serif" font-size="14.00">left: 0x504000000f10</text>
<polyline fill="none" stroke="black" points="1674,-258.5 1674,-281.5 "/>
<text text-anchor="middle" x="1765" y="-266.3" font-family="Times,serif" font-size="14.00">right: 0x504000000f50</text>
</g>
<!-- node17&#45;&gt;node15 -->
<g id="edge13" class="edge">
<title>node17:f3&#45;&gt;node15</title>
<path fill="none" stroke="red" d="M1588.43,-247.9C1588.36,-242.58 1588.24,-237.19 1588.09,-231.86"/>
<polygon fill="red" stroke="red" points="1584.93,-248.02 1588.5,-258 1591.93,-247.98 1584.93,-248.02"/>
<polygon fill="red" stroke="red" points="1591.58,-231.63 1587.76,-221.75 1584.58,-231.86 1591.58,-231.63"/>
</g>
<!-- node17&#45;&gt;node16 -->
<g id="edge14" class="edge">
<title>node17:f4&#45;&gt;node16</title>
<path fill="none" stroke="green" d="M1765.62,-247.89C1765.73,-242.57 1765.93,-237.17 1766.19,-231.84"/>
<polygon fill="green" stroke="green" points="1762.12,-247.96 1765.5,-258 1769.12,-248.04 1762.12,-247.96"/>
<polygon fill="green" stroke="green" points="1769.69,-231.91 1766.74,-221.73 1762.7,-231.53 1769.69,-231.91"/>
</g>
<!-- node18 -->
<g id="node18" class="node">
<title>node18</title>
<polygon fill="lightblue" stroke="black" points="1314.5,-387.5 1314.5,-479.5 1674.5,-479.5 1674.5,-387.5 1314.5,-387.5"/>
<text text-anchor="middle" x="1494.5" y="-464.3" font-family="Times,serif" font-size="14.00">0x504000000790</text>
<polyline fill="none" stroke="black" points="1314.5,-456.5 1674.5,-456.5 "/>
<text text-anchor="middle" x="1494.5" y="-441.3" font-family="Times,serif" font-size="14.00">type = OPERATION</text>
<polyline fill="none" stroke="black" points="1314.5,-433.5 1674.5,-433.5 "/>
<text text-anchor="middle" x="1494.5" y="-418.3" font-family="Times,serif" font-size="14.00">data = *</text>
<polyline fill="none" stroke="black" points="1314.5,-410.5 1674.5,-410.5 "/>
<text text-anchor="middle" x="1402" y="-395.3" font-family="Times,serif" font-size="14.00">left: 0x5040000006d0</text>
<polyline fill="none" stroke="black" points="1489.5,-387.5 1489.5,-410.5 "/>
<text text-anchor="middle" x="1582" y="-395.3" font-family="Times,serif" font-size="14.00">right: 0x504000000ed0</text>
</g>
<!-- node18&#45;&gt;node14 -->
<g id="edge15" class="edge">
<title>node18:f3&#45;&gt;node14</title>
<path fill="none" stroke="red" d="M1303.53,-396.11C1293.9,-390.65 1291.64,-376.5 1292.58,-360.97"/>
<polygon fill="red" stroke="red" points="1302.96,-399.58 1313.5,-398.5 1304.59,-392.77 1302.96,-399.58"/>
<polygon fill="red" stroke="red" points="1296.1,-360.94 1293.61,-350.64 1289.13,-360.24 1296.1,-360.94"/>
</g>
<!-- node18&#45;&gt;node17 -->
<g id="edge16" class="edge">
<title>node18:f4&#45;&gt;node17</title>
<path fill="none" stroke="green" d="M1685.31,-396.11C1694.7,-390.6 1696.13,-376.23 1694.29,-360.53"/>
<polygon fill="green" stroke="green" points="1684.39,-392.73 1675.5,-398.5 1686.04,-399.54 1684.39,-392.73"/>
<polygon fill="green" stroke="green" points="1697.75,-359.99 1692.76,-350.64 1690.83,-361.05 1697.75,-359.99"/>
</g>
<!-- node19 -->
<g id="node19" class="node">
<title>node19</title>
<polygon fill="lightblue" stroke="black" points="1226,-516.5 1226,-608.5 1587,-608.5 1587,-516.5 1226,-516.5"/>
<text text-anchor="middle" x="1406.5" y="-593.3" font-family="Times,serif" font-size="14.00">0x504000000b90</text>
<polyline fill="none" stroke="black" points="1226,-585.5 1587,-585.5 "/>
<text text-anchor="middle" x="1406.5" y="-570.3" font-family="Times,serif" font-size="14.00">type = OPERATION</text>
<polyline fill="none" stroke="black" points="1226,-562.5 1587,-562.5 "/>
<text text-anchor="middle" x="1406.5" y="-547.3" font-family="Times,serif" font-size="14.00">data = &#45;</text>
<polyline fill="none" stroke="black" points="1226,-539.5 1587,-539.5 "/>
<text text-anchor="middle" x="1313.5" y="-524.3" font-family="Times,serif" font-size="14.00">left: 0x504000000b50</text>
<polyline fill="none" stroke="black" points="1401,-516.5 1401,-539.5 "/>
<text text-anchor="middle" x="1494" y="-524.3" font-family="Times,serif" font-size="14.00">right: 0x504000000790</text>
</g>
<!-- node19&#45;&gt;node11 -->
<g id="edge17" class="edge">
<title>node19:f3&#45;&gt;node11</title>
<path fill="none" stroke="red" d="M1214.26,-527.44C1100.74,-526.17 976.69,-504.11 879.28,-481.8"/>
<polygon fill="red" stroke="red" points="1214.48,-530.94 1224.5,-527.5 1214.52,-523.94 1214.48,-530.94"/>
<polygon fill="red" stroke="red" points="879.87,-478.34 869.34,-479.5 878.29,-485.16 879.87,-478.34"/>
</g>
<!-- node19&#45;&gt;node18 -->
<g id="edge18" class="edge">
<title>node19:f4&#45;&gt;node18</title>
<path fill="none" stroke="green" d="M1494.5,-505.91C1494.5,-500.59 1494.5,-495.2 1494.5,-489.87"/>
<polygon fill="green" stroke="green" points="1491,-506 1494.5,-516 1498,-506 1491,-506"/>
<polygon fill="green" stroke="green" points="1498,-489.76 1494.5,-479.76 1491,-489.76 1498,-489.76"/>
</g>
<!-- node20 -->
<g id="node20" class="node">
<title>node20</title>
<polygon fill="lightblue" stroke="black" points="1874,-258.5 1874,-350.5 2041,-350.5 2041,-258.5 1874,-258.5"/>
<text text-anchor="middle" x="1957.5" y="-335.3" font-family="Times,serif" font-size="14.00">0x5040000002d0</text>
<polyline fill="none" stroke="black" points="1874,-327.5 2041,-327.5 "/>
<text text-anchor="middle" x="1957.5" y="-312.3" font-family="Times,serif" font-size="14.00">type = NUMBER</text>
<polyline fill="none" stroke="black" points="1874,-304.5 2041,-304.5 "/>
<text text-anchor="middle" x="1957.5" y="-289.3" font-family="Times,serif" font-size="14.00">data = 12</text>
<polyline fill="none" stroke="black" points="1874,-281.5 2041,-281.5 "/>
<text text-anchor="middle" x="1913" y="-266.3" font-family="Times,serif" font-size="14.00">left: (nil)</text>
<polyline fill="none" stroke="black" points="1952,-258.5 1952,-281.5 "/>
<text text-anchor="middle" x="1996.5" y="-266.3" font-family="Times,serif" font-size="14.00">right: (nil)</text>
</g>
<!-- node21 -->
<g id="node21" class="node">
<title>node21</title>
<polygon fill="lightblue" stroke="black" points="2061,-129.5 2061,-221.5 2228,-221.5 2228,-129.5 2061,-129.5"/>
<text text-anchor="middle" x="2144.5" y="-206.3" font-family="Times,serif" font-size="14.00">0x504000000350</text>
<polyline fill="none" stroke="black" points="2061,-198.5 2228,-198.5 "/>
<text text-anchor="middle" x="2144.5" y="-183.3" font-family="Times,serif" font-size="14.00">type = VARIABLE</text>
<polyline fill="none" stroke="black" points="2061,-175.5 2228,-175.5 "/>
<text text-anchor="middle" x="2144.5" y="-160.3" font-family="Times,serif" font-size="14.00">data = x</text>
<polyline fill="none" stroke="black" points="2061,-152.5 2228,-152.5 "/>
<text text-anchor="middle" x="2100" y="-137.3" font-family="Times,serif" font-size="14.00">left: (nil)</text>
<polyline fill="none" stroke="black" points="2139,-129.5 2139,-152.5 "/>
<text text-anchor="middle" x="2183.5" y="-137.3" font-family="Times,serif" font-size="14.00">right: (nil)</text>
</g>
<!-- node22 -->
<g id="node22" class="node">
<title>node22</title>
<polygon fill="lightblue" stroke="black" points="2246,-129.5 2246,-221.5 2413,-221.5 2413,-129.5 2246,-129.5"/>
<text text-anchor="middle" x="2329.5" y="-206.3" font-family="Times,serif" font-size="14.00">0x504000000390</text>
<polyline fill="none" stroke="black" points="2246,-198.5 2413,-198.5 "/>
<text text-anchor="middle" x="2329.5" y="-183.3" font-family="Times,serif" font-size="14.00">type = NUMBER</text>
<polyline fill="none" stroke="black" points="2246,-175.5 2413,-175.5 "/>
<text text-anchor="middle" x="2329.5" y="-160.3" font-family="Times,serif" font-size="14.00">data = 2</text>
<polyline fill="none" stroke="black" points="2246,-152.5 2413,-152.5 "/>
<text text-anchor="middle" x="2285" y="-137.3" font-family="Times,serif" font-size="14.00">left: (nil)</text>
<polyline fill="none" stroke="black" points="2324,-129.5 2324,-152.5 "/>
<text text-anchor="middle" x="2368.5" y="-137.3" font-family="Times,serif" font-size="14.00">right: (nil)</text>
</g>
<!-- node23 -->
<g id="node23" class="node">
<title>node23</title>
<polygon fill="lightblue" stroke="black" points="2059,-258.5 2059,-350.5 2420,-350.5 2420,-258.5 2059,-258.5"/>
<text text-anchor="middle" x="2239.5" y="-335.3" font-family="Times,serif" font-size="14.00">0x504000000310</text>
<polyline fill="none" stroke="black" points="2059,-327.5 2420,-327.5 "/>
<text text-anchor="middle" x="2239.5" y="-312.3" font-family="Times,serif" font-size="14.00">type = OPERATION</text>
<polyline fill="none" stroke="black" points="2059,-304.5 2420,-304.5 "/>
<text text-anchor="middle" x="2239.5" y="-289.3" font-family="Times,serif" font-size="14.00">data = ^</text>
<polyline fill="none" stroke="black" points="2059,-281.5 2420,-281.5 "/>
<text text-anchor="middle" x="2146.5" y="-266.3" font-family="Times,serif" font-size="14.00">left: 0x504000000350</text>
<polyline fill="none" stroke="black" points="2234,-258.5 2234,-281.5 "/>
<text text-anchor="middle" x="2327" y="-266.3" font-family="Times,serif" font-size="14.00">right: 0x504000000390</text>
</g>
<!-- node23&#45;&gt;node21 -->
<g id="edge19" class="edge">
<title>node23:f3&#45;&gt;node21</title>
<path fill="none" stroke="red" d="M2146.45,-247.9C2146.41,-242.59 2146.33,-237.19 2146.22,-231.87"/>
<polygon fill="red" stroke="red" points="2142.95,-248.02 2146.5,-258 2149.95,-247.98 2142.95,-248.02"/>
<polygon fill="red" stroke="red" points="2149.72,-231.68 2146.01,-221.76 2142.72,-231.83 2149.72,-231.68"/>
</g>
<!-- node23&#45;&gt;node22 -->
<g id="edge20" class="edge">
<title>node23:f4&#45;&gt;node22</title>
<path fill="none" stroke="green" d="M2327.55,-247.9C2327.59,-242.59 2327.67,-237.19 2327.78,-231.87"/>
<polygon fill="green" stroke="green" points="2324.05,-247.98 2327.5,-258 2331.05,-248.02 2324.05,-247.98"/>
<polygon fill="green" stroke="green" points="2331.28,-231.83 2327.99,-221.76 2324.28,-231.68 2331.28,-231.83"/>
</g>
<!-- node24 -->
<g id="node24" class="node">
<title>node24</title>
<polygon fill="lightblue" stroke="black" points="1870,-387.5 1870,-479.5 2231,-479.5 2231,-387.5 1870,-387.5"/>
<text text-anchor="middle" x="2050.5" y="-464.3" font-family="Times,serif" font-size="14.00">0x504000000290</text>
<polyline fill="none" stroke="black" points="1870,-456.5 2231,-456.5 "/>
<text text-anchor="middle" x="2050.5" y="-441.3" font-family="Times,serif" font-size="14.00">type = OPERATION</text>
<polyline fill="none" stroke="black" points="1870,-433.5 2231,-433.5 "/>
<text text-anchor="middle" x="2050.5" y="-418.3" font-family="Times,serif" font-size="14.00">data = +</text>
<polyline fill="none" stroke="black" points="1870,-410.5 2231,-410.5 "/>
<text text-anchor="middle" x="1957.5" y="-395.3" font-family="Times,serif" font-size="14.00">left: 0x5040000002d0</text>
<polyline fill="none" stroke="black" points="2045,-387.5 2045,-410.5 "/>
<text text-anchor="middle" x="2138" y="-395.3" font-family="Times,serif" font-size="14.00">right: 0x504000000310</text>
</g>
<!-- node24&#45;&gt;node20 -->
<g id="edge21" class="edge">
<title>node24:f3&#45;&gt;node20</title>
<path fill="none" stroke="red" d="M1957.5,-376.91C1957.5,-371.59 1957.5,-366.2 1957.5,-360.87"/>
<polygon fill="red" stroke="red" points="1954,-377 1957.5,-387 1961,-377 1954,-377"/>
<polygon fill="red" stroke="red" points="1961,-360.76 1957.5,-350.76 1954,-360.76 1961,-360.76"/>
</g>
<!-- node24&#45;&gt;node23 -->
<g id="edge22" class="edge">
<title>node24:f4&#45;&gt;node23</title>
<path fill="none" stroke="green" d="M2237.13,-389.26C2238.49,-382.22 2239.25,-371.89 2239.64,-360.88"/>
<polygon fill="green" stroke="green" points="2233.85,-387.99 2232.5,-398.5 2240.11,-391.12 2233.85,-387.99"/>
<polygon fill="green" stroke="green" points="2243.15,-360.73 2239.91,-350.64 2236.15,-360.54 2243.15,-360.73"/>
</g>
<!-- node25 -->
<g id="node25" class="node">
<title>node25</title>
<polygon fill="lightblue" stroke="black" points="2249,-387.5 2249,-479.5 2416,-479.5 2416,-387.5 2249,-387.5"/>
<text text-anchor="middle" x="2332.5" y="-464.3" font-family="Times,serif" font-size="14.00">0x504000000250</text>
<polyline fill="none" stroke="black" points="2249,-456.5 2416,-456.5 "/>
<text text-anchor="middle" x="2332.5" y="-441.3" font-family="Times,serif" font-size="14.00">type = NUMBER</text>
<polyline fill="none" stroke="black" points="2249,-433.5 2416,-433.5 "/>
<text text-anchor="middle" x="2332.5" y="-418.3" font-family="Times,serif" font-size="14.00">data = 2</text>
<polyline fill="none" stroke="black" points="2249,-410.5 2416,-410.5 "/>
<text text-anchor="middle" x="2288" y="-395.3" font-family="Times,serif" font-size="14.00">left: (nil)</text>
<polyline fill="none" stroke="black" points="2327,-387.5 2327,-410.5 "/>
<text text-anchor="middle" x="2371.5" y="-395.3" font-family="Times,serif" font-size="14.00">right: (nil)</text>
</g>
<!-- node26 -->
<g id="node26" class="node">
<title>node26</title>
<polygon fill="lightblue" stroke="black" points="1963,-516.5 1963,-608.5 2324,-608.5 2324,-516.5 1963,-516.5"/>
<text text-anchor="middle" x="2143.5" y="-593.3" font-family="Times,serif" font-size="14.00">0x5040000003d0</text>
<polyline fill="none" stroke="black" points="1963,-585.5 2324,-585.5 "/>
<text text-anchor="middle" x="2143.5" y="-570.3" font-family="Times,serif" font-size="14.00">type = OPERATION</text>
<polyline fill="none" stroke="black" points="1963,-562.5 2324,-562.5 "/>
<text text-anchor="middle" x="2143.5" y="-547.3" font-family="Times,serif" font-size="14.00">data = ^</text>
<polyline fill="none" stroke="black" points="1963,-539.5 2324,-539.5 "/>
<text text-anchor="middle" x="2050.5" y="-524.3" font-family="Times,serif" font-size="14.00">left: 0x504000000290</text>
<polyline fill="none" stroke="black" points="2138,-516.5 2138,-539.5 "/>
<text text-anchor="middle" x="2231" y="-524.3" font-family="Times,serif" font-size="14.00">right: 0x504000000250</text>
</g>
<!-- node26&#45;&gt;node24 -->
<g id="edge23" class="edge">
<title>node26:f3&#45;&gt;node24</title>
<path fill="none" stroke="red" d="M2050.5,-505.91C2050.5,-500.59 2050.5,-495.2 2050.5,-489.87"/>
<polygon fill="red" stroke="red" points="2047,-506 2050.5,-516 2054,-506 2047,-506"/>
<polygon fill="red" stroke="red" points="2054,-489.76 2050.5,-479.76 2047,-489.76 2054,-489.76"/>
</g>
<!-- node26&#45;&gt;node25 -->
<g id="edge24" class="edge">
<title>node26:f4&#45;&gt;node25</title>
<path fill="none" stroke="green" d="M2335.4,-525.11C2344.9,-519.65 2346.85,-505.5 2345.59,-489.97"/>
<polygon fill="green" stroke="green" points="2334.4,-521.75 2325.5,-527.5 2336.04,-528.56 2334.4,-521.75"/>
<polygon fill="green" stroke="green" points="2349.01,-489.15 2344.34,-479.64 2342.06,-489.99 2349.01,-489.15"/>
</g>
<!-- node27 -->
<g id="node27" class="node">
<title>node27</title>
<polygon fill="lightblue" stroke="black" points="1645,-645.5 1645,-737.5 2006,-737.5 2006,-645.5 1645,-645.5"/>
<text text-anchor="middle" x="1825.5" y="-722.3" font-family="Times,serif" font-size="14.00">0x504000000bd0</text>
<polyline fill="none" stroke="black" points="1645,-714.5 2006,-714.5 "/>
<text text-anchor="middle" x="1825.5" y="-699.3" font-family="Times,serif" font-size="14.00">type = OPERATION</text>
<polyline fill="none" stroke="black" points="1645,-691.5 2006,-691.5 "/>
<text text-anchor="middle" x="1825.5" y="-676.3" font-family="Times,serif" font-size="14.00">data = /</text>
<polyline fill="none" stroke="black" points="1645,-668.5 2006,-668.5 "/>
<text text-anchor="middle" x="1732.5" y="-653.3" font-family="Times,serif" font-size="14.00">left: 0x504000000b90</text>
<polyline fill="none" stroke="black" points="1820,-645.5 1820,-668.5 "/>
<text text-anchor="middle" x="1913" y="-653.3" font-family="Times,serif" font-size="14.00">right: 0x5040000003d0</text>
</g>
<!-- node27&#45;&gt;node19 -->
<g id="edge25" class="edge">
<title>node27:f3&#45;&gt;node19</title>
<path fill="none" stroke="red" d="M1633.32,-656.26C1582.4,-653.84 1530.14,-633.87 1488.64,-613.08"/>
<polygon fill="red" stroke="red" points="1633.42,-659.76 1643.5,-656.5 1633.59,-652.76 1633.42,-659.76"/>
<polygon fill="red" stroke="red" points="1490.18,-609.94 1479.68,-608.5 1486.99,-616.17 1490.18,-609.94"/>
</g>
<!-- node27&#45;&gt;node26 -->
<g id="edge26" class="edge">
<title>node27:f4&#45;&gt;node26</title>
<path fill="none" stroke="green" d="M2017.49,-655.93C2047.44,-652.56 2075.17,-634.63 2096.95,-615.45"/>
<polygon fill="green" stroke="green" points="2017.29,-652.44 2007.5,-656.5 2017.68,-659.43 2017.29,-652.44"/>
<polygon fill="green" stroke="green" points="2099.39,-617.97 2104.4,-608.64 2094.66,-612.81 2099.39,-617.97"/>
</g>
</g>
</svg>
